<?xml version="1.0" standalone="no"?>
<!DOCTYPE svg PUBLIC "-//W3C//DTD SVG 20010904//EN"
 "http://www.w3.org/TR/2001/REC-SVG-20010904/DTD/svg10.dtd">
<svg version="1.0" xmlns="http://www.w3.org/2000/svg"
 width="1024.000000pt" height="1024.000000pt" viewBox="0 0 1024.000000 1024.000000"
 preserveAspectRatio="xMidYMid meet">

<g transform="translate(0.000000,1024.000000) scale(0.100000,-0.100000)"
fill="#ced4da" stroke="none">
<path d="M1220 5380 l0 -650 145 0 145 0 0 230 0 231 136 -3 136 -3 121 -227
122 -228 152 0 153 0 -65 123 c-35 67 -95 180 -133 251 l-68 130 47 23 c58 29
131 92 159 139 69 111 66 317 -7 441 -30 51 -98 115 -152 142 -91 47 -133 51
-523 51 l-368 0 0 -650z m674 400 c54 -12 87 -38 114 -90 45 -88 18 -190 -61
-232 -39 -21 -57 -23 -239 -26 l-198 -4 0 181 0 181 173 0 c94 0 190 -5 211
-10z"/>
<path d="M2410 5910 l0 -120 135 0 135 0 0 120 0 120 -135 0 -135 0 0 -120z"/>
<path d="M3840 5380 l0 -650 288 0 c316 0 385 9 473 57 71 38 145 122 164 185
20 67 19 192 -1 251 -20 58 -88 136 -147 167 l-45 24 40 28 c146 107 158 368
22 488 -47 41 -124 77 -194 90 -29 5 -176 10 -326 10 l-274 0 0 -650z m569
509 c60 -13 103 -40 145 -92 28 -36 31 -45 31 -112 0 -81 -12 -105 -76 -156
-57 -47 -130 -59 -341 -59 l-188 0 0 215 0 215 190 0 c104 0 212 -5 239 -11z
m23 -560 c71 -15 119 -41 156 -83 72 -82 69 -220 -6 -299 -66 -70 -147 -87
-414 -87 l-188 0 0 240 0 240 200 0 c109 0 223 -5 252 -11z"/>
<path d="M3050 5686 c-205 -59 -309 -230 -297 -486 13 -273 166 -427 422 -424
107 1 179 25 243 80 l42 36 0 -69 c0 -175 -73 -256 -230 -257 -65 -1 -81 3
-123 27 -26 16 -53 37 -60 48 -11 17 -24 19 -144 19 -100 0 -133 -3 -133 -12
0 -33 61 -137 102 -175 90 -82 193 -117 348 -117 208 0 362 71 433 201 53 99
57 136 57 651 l0 472 -125 0 -125 0 0 -51 0 -51 -41 37 c-66 59 -119 78 -229
82 -57 1 -113 -3 -140 -11z m279 -216 c169 -86 167 -394 -3 -471 -85 -39 -203
-16 -258 49 -45 54 -61 111 -56 204 7 119 45 186 128 222 51 22 142 20 189 -4z"/>
<path d="M5168 5671 c-179 -59 -303 -208 -330 -398 -28 -190 50 -389 189 -485
130 -89 309 -107 441 -45 26 12 73 47 105 77 l57 56 0 -73 0 -73 65 0 65 0 0
470 0 470 -65 0 -65 0 0 -82 0 -81 -29 40 c-64 89 -157 133 -291 139 -65 3
-99 0 -142 -15z m283 -143 c60 -35 115 -98 148 -167 23 -50 26 -68 26 -171 0
-107 -2 -119 -29 -173 -35 -68 -98 -130 -164 -160 -36 -17 -66 -22 -132 -22
-66 0 -96 5 -132 22 -69 32 -131 94 -164 166 -26 56 -29 72 -29 172 0 98 3
116 26 166 37 78 93 137 164 171 55 27 67 29 150 26 77 -3 98 -8 136 -30z"/>
<path d="M6935 5677 c-86 -22 -147 -58 -216 -126 -74 -74 -112 -140 -134 -233
-36 -153 0 -323 94 -447 74 -98 216 -162 356 -162 128 0 206 33 289 121 26 27
48 50 49 50 1 0 1 -34 -1 -75 l-4 -75 71 0 71 0 0 470 0 470 -71 0 -71 0 4
-75 c2 -41 2 -75 1 -75 -1 0 -28 26 -60 58 -42 42 -75 65 -117 81 -73 27 -193
35 -261 18z m240 -141 c98 -46 180 -167 195 -290 20 -165 -54 -317 -188 -383
-49 -24 -69 -28 -142 -28 -73 0 -93 4 -142 28 -67 33 -121 90 -157 166 -23 50
-26 68 -26 166 0 98 3 116 26 166 37 77 89 133 161 169 53 26 72 30 142 30 64
0 92 -5 131 -24z"/>
<path d="M7933 5676 c-126 -32 -241 -123 -298 -237 -69 -135 -73 -323 -10
-464 99 -223 374 -330 592 -230 56 25 139 95 148 126 4 10 11 19 17 19 6 0 9
-29 6 -80 l-3 -80 67 0 68 0 0 470 0 470 -68 0 -67 0 4 -82 3 -82 -56 61 c-76
82 -148 114 -265 119 -50 2 -108 -2 -138 -10z m247 -137 c63 -28 133 -101 167
-173 25 -55 28 -71 28 -171 0 -97 -3 -116 -25 -160 -31 -65 -117 -150 -177
-178 -69 -31 -188 -30 -261 2 -60 27 -129 98 -162 165 -47 98 -47 253 -1 349
79 163 269 236 431 166z"/>
<path d="M8981 5674 c-77 -16 -147 -57 -178 -103 l-23 -34 0 67 0 66 -65 0
-65 0 0 -470 0 -470 65 0 65 0 0 290 c0 322 6 370 54 433 46 61 104 89 193 95
l73 5 0 68 c0 69 0 69 -27 68 -16 0 -57 -7 -92 -15z"/>
<path d="M2410 5205 l0 -475 135 0 135 0 0 475 0 475 -135 0 -135 0 0 -475z"/>
<path d="M5850 5600 l0 -60 282 0 282 0 -30 -32 c-31 -33 -248 -299 -442 -540
-102 -127 -102 -127 -102 -183 l0 -55 375 0 375 0 0 65 0 66 -290 -3 c-254 -3
-314 0 -282 14 4 2 135 161 290 354 267 333 282 354 282 393 l0 41 -370 0
-370 0 0 -60z"/>
</g>
</svg>
